<?xml version="1.0" standalone="no"?>
<!DOCTYPE svg PUBLIC "-//W3C//DTD SVG 20010904//EN"
 "http://www.w3.org/TR/2001/REC-SVG-20010904/DTD/svg10.dtd">
<svg version="1.0" xmlns="http://www.w3.org/2000/svg"
 width="394.000000pt" height="394.000000pt" viewBox="0 0 394.000000 394.000000"
 preserveAspectRatio="xMidYMid meet">
<metadata>
Created by potrace 1.14, written by Peter Selinger 2001-2017
</metadata>
<g transform="translate(0.000000,394.000000) scale(0.100000,-0.100000)"
fill="#000000" stroke="none">
<path d="M1859 3926 c-2 -2 -40 -6 -84 -10 -491 -38 -994 -308 -1325 -711
-191 -233 -357 -584 -404 -855 -3 -19 -8 -44 -10 -56 -5 -24 -16 -113 -21
-164 -6 -59 -6 -282 0 -340 55 -520 279 -961 665 -1304 257 -229 633 -408 970
-460 186 -29 474 -28 647 3 546 96 1010 396 1307 844 123 186 234 434 271 607
40 184 43 203 52 315 11 139 7 357 -8 425 -4 19 -10 53 -13 75 -24 204 -163
563 -286 736 -17 24 -42 61 -56 82 -44 66 -134 170 -228 261 -295 286 -668
470 -1076 532 -93 14 -391 29 -401 20z"/>
</g>
</svg>
